HIERARCHY
ROOT Hips
{
	OFFSET 0.000000 0.000000 0.000000
	CHANNELS 6 Xposition Yposition Zposition Zrotation Yrotation Xrotation 
	JOINT LHipJoint
	{
		OFFSET 0.000000 0.000000 0.000000
		CHANNELS 3 Zrotation Yrotation Xrotation
		JOINT LeftUpLeg
		{
			OFFSET 1.363060 -1.794630 0.839290
			CHANNELS 3 Zrotation Yrotation Xrotation
			JOINT LeftLeg
			{
				OFFSET 2.448110 -6.726130 0.000000
				CHANNELS 3 Zrotation Yrotation Xrotation
				JOINT LeftFoot
				{
					OFFSET 2.562200 -7.039590 0.000000
					CHANNELS 3 Zrotation Yrotation Xrotation
					JOINT LeftToeBase
					{
						OFFSET 0.157640 -0.433110 2.322550
						CHANNELS 3 Zrotation Yrotation Xrotation
						End Site
						{
							OFFSET 0.000000 0.000000 0.000000
						}
					}
				}
			}
		}
	}
	JOINT RHipJoint
	{
		OFFSET 0.000000 0.000000 0.000000
		CHANNELS 3 Zrotation Yrotation Xrotation
		JOINT RightUpLeg
		{
			OFFSET -1.305520 -1.794630 0.839290
			CHANNELS 3 Zrotation Yrotation Xrotation
			JOINT RightLeg
			{
				OFFSET -2.542530 -6.985550 0.000000
				CHANNELS 3 Zrotation Yrotation Xrotation
				JOINT RightFoot
				{
					OFFSET -2.568260 -7.056230 0.000000
					CHANNELS 3 Zrotation Yrotation Xrotation
					JOINT RightToeBase
					{
						OFFSET -0.164730 -0.452590 2.363150
						CHANNELS 3 Zrotation Yrotation Xrotation
						End Site
						{
							OFFSET 0.000000 0.000000 0.000000
						}
					}
				}
			}
		}
	}
	JOINT LowerBack
	{
		OFFSET 0.000000 0.000000 0.000000
		CHANNELS 3 Zrotation Yrotation Xrotation
		JOINT Spine
		{
			OFFSET 0.028270 2.035590 -0.193380
			CHANNELS 3 Zrotation Yrotation Xrotation
			JOINT Spine1
			{
				OFFSET 0.056720 2.048850 -0.042750
				CHANNELS 3 Zrotation Yrotation Xrotation
				JOINT Neck
				{
					OFFSET 0.000000 0.000000 0.000000
					CHANNELS 3 Zrotation Yrotation Xrotation
					JOINT Neck1
					{
						OFFSET -0.054170 1.746240 0.172020
						CHANNELS 3 Zrotation Yrotation Xrotation
						JOINT Head
						{
							OFFSET 0.104070 1.761360 -0.123970
							CHANNELS 3 Zrotation Yrotation Xrotation
							End Site
							{
								OFFSET 0.000000 0.000000 0.000000
							}
						}
					}
				}
				JOINT LeftShoulder
				{
					OFFSET 0.000000 0.000000 0.000000
					CHANNELS 3 Zrotation Yrotation Xrotation
					JOINT LeftArm
					{
						OFFSET 3.362410 1.200890 -0.311210
						CHANNELS 3 Zrotation Yrotation Xrotation
						JOINT LeftForeArm
						{
							OFFSET 4.983000 -0.000000 -0.000000
							CHANNELS 3 Zrotation Yrotation Xrotation
							JOINT LeftHand
							{
								OFFSET 3.483560 -0.000000 -0.000000
								CHANNELS 3 Zrotation Yrotation Xrotation
								JOINT LeftFingerBase
								{
									OFFSET 0.000000 0.000000 0.000000
									CHANNELS 3 Zrotation Yrotation Xrotation
									JOINT LeftHandIndex1
									{
										OFFSET 0.715260 -0.000000 -0.000000
										CHANNELS 3 Zrotation Yrotation Xrotation
										End Site
										{
											OFFSET 0.000000 0.000000 0.000000
										}
									}
								}
								JOINT LThumb
								{
									OFFSET 0.000000 0.000000 0.000000
									CHANNELS 3 Zrotation Yrotation Xrotation
									End Site
									{
										OFFSET 0.000000 0.000000 0.000000
									}
								}
							}
						}
					}
				}
				JOINT RightShoulder
				{
					OFFSET 0.000000 0.000000 0.000000
					CHANNELS 3 Zrotation Yrotation Xrotation
					JOINT RightArm
					{
						OFFSET -3.136600 1.374050 -0.404650
						CHANNELS 3 Zrotation Yrotation Xrotation
						JOINT RightForeArm
						{
							OFFSET -5.241900 -0.000000 -0.000000
							CHANNELS 3 Zrotation Yrotation Xrotation
							JOINT RightHand
							{
								OFFSET -3.444170 -0.000000 -0.000000
								CHANNELS 3 Zrotation Yrotation Xrotation
								JOINT RightFingerBase
								{
									OFFSET 0.000000 0.000000 0.000000
									CHANNELS 3 Zrotation Yrotation Xrotation
									JOINT RightHandIndex1
									{
										OFFSET -0.622530 -0.000000 -0.000000
										CHANNELS 3 Zrotation Yrotation Xrotation
										End Site
										{
											OFFSET 0.000000 0.000000 0.000000
										}
									}
								}
								JOINT RThumb
								{
									OFFSET 0.000000 0.000000 0.000000
									CHANNELS 3 Zrotation Yrotation Xrotation
									End Site
									{
										OFFSET 0.000000 0.000000 0.000000
									}
								}
							}
						}
					}
				}
			}
		}
	}
}
MOTION
Frames: 8
Frame Time: 0.008333
-0.103810 17.834547 -26.599590 0.028082 47.937561 4.099656 -6.016858 -2.015154 -0.547621 -3.965192 -19.953508 -11.922134 -0.147093 7.823368 21.436157 2.298966 -6.833272 9.466782 0.256800 -3.260700 -9.005300 4.271633 1.546356 0.814097 15.852921 -21.001189 -9.482001 -1.212335 -8.698078 22.815939 10.117903 -40.266836 -31.053864 -0.117200 -2.207500 6.079400 3.488086 6.722382 1.302927 2.447545 8.773236 -0.493389 0.574399 4.512783 -0.077735 7.716226 23.047812 3.104948 -2.678525 30.602526 5.033817 -2.369400 15.189600 5.915900 3.879886 -1.934305 0.368810 -89.785900 2.207915 -12.212361 10.751939 -17.603134 -1.582480 0.438547 0.419883 5.248306 17.379544 6.111964 1.720300 -7.125000 0.000000 0.000000 -8.127200 35.780100 1.856800 -2.618514 0.888795 0.362744 75.712964 0.773732 13.126453 -29.656644 40.055030 -10.540893 0.203995 -0.575196 -19.179930 -16.778072 -0.344234 -0.088700 7.125000 0.000000 0.000000 7.670900 -29.630400 2.898700 
-0.104109 17.830666 -26.588144 -0.021463 48.033803 3.853737 -5.995725 -1.995929 -0.532536 -4.021633 -19.981545 -11.661606 -0.145233 7.833503 21.457208 2.298944 -6.845689 9.386801 0.256100 -3.256000 -8.992300 4.285686 1.529884 0.814492 15.846506 -21.121869 -9.184021 -1.201941 -8.685625 22.768948 10.043616 -40.193769 -31.256146 -0.118600 -2.220700 6.115900 4.748437 8.820158 2.396328 0.265447 11.651028 -1.617505 -2.952272 5.933567 -1.394897 12.628836 21.091655 4.589141 -2.077021 27.506922 3.009140 -3.316800 13.788900 5.306000 3.846932 -2.080438 0.428126 -84.671566 2.632057 -5.854932 10.202450 -16.596559 -1.411649 0.442155 0.411246 5.440517 17.239048 5.842735 1.626000 -7.125000 0.000000 0.000000 -8.211600 35.502000 1.932600 -2.764109 0.851591 0.379623 80.823726 -2.484753 7.098322 -30.981981 41.229463 -11.401621 0.212729 -0.602687 -18.664262 -16.771215 -0.315035 -0.106500 7.125000 0.000000 0.000000 7.667600 -29.569000 2.908700 
-0.102616 17.826884 -26.589139 0.216832 47.948001 3.886797 -6.003565 -1.976664 -0.522068 -4.272884 -19.960296 -11.493266 -0.144739 7.852676 21.487875 2.271779 -6.737115 9.285741 0.257600 -3.265300 -9.018300 4.283495 1.516524 0.813810 15.574410 -21.305910 -9.043472 -1.211818 -8.682669 22.755842 10.063348 -40.138778 -30.969506 -0.115200 -2.188600 6.027100 4.625801 9.006093 2.612312 0.072852 11.907805 -1.596192 -3.141844 6.055159 -1.464012 12.644156 20.977124 4.131652 -1.836911 27.327810 3.297260 -3.213200 13.703500 5.428200 3.855324 -2.053154 0.421395 -84.419727 2.670135 -6.591026 9.965750 -16.225647 -1.351879 0.452766 0.411564 5.983490 17.434659 6.082228 1.716800 -7.125000 0.000000 0.000000 -8.085500 35.753700 1.852400 -2.761816 0.864049 0.376782 80.407260 -1.854007 7.357392 -30.909355 41.167373 -11.357323 0.212404 -0.600467 -18.987974 -16.820721 -0.247545 -0.126600 7.125000 0.000000 0.000000 7.626500 -29.501600 2.905200 
-0.103810 17.826486 -26.587248 0.072797 47.653737 3.692471 -5.990093 -1.964050 -0.500203 -4.208864 -19.855617 -11.381865 -0.139259 7.866676 21.505582 2.227114 -6.486602 9.232923 0.261900 -3.292600 -9.094500 4.282850 1.515526 0.810009 15.598331 -21.131502 -8.881308 -1.205928 -8.676701 22.725451 10.080483 -40.140557 -30.852508 -0.113800 -2.175400 5.990600 4.543324 8.878256 2.673580 0.331693 11.743157 -1.469749 -2.784820 5.973906 -1.428115 12.184803 21.171817 4.102764 -2.061555 27.665367 3.588856 -3.167900 13.864600 5.535600 3.859614 -2.048680 0.414327 -85.112945 3.037285 -7.973765 9.878727 -16.100372 -1.328195 0.444675 0.396695 6.655948 17.005218 5.794935 1.590300 -7.125000 0.000000 0.000000 -8.394800 35.447800 1.987700 -2.741538 0.874394 0.375148 79.804167 -1.701203 8.504921 -31.514267 41.663126 -11.736197 0.215149 -0.599770 -19.311637 -16.934586 -0.109342 -0.169800 7.125000 0.000000 0.000000 7.527800 -29.358300 2.892900 
-0.103810 17.824993 -26.583864 0.061027 47.513926 3.597769 -5.983336 -1.952626 -0.486634 -4.240536 -19.805500 -11.269567 -0.136627 7.877438 21.520128 2.201070 -6.354281 9.170369 0.262800 -3.298200 -9.110000 4.283446 1.510606 0.808139 15.549624 -21.101204 -8.751961 -1.205072 -8.675116 22.714049 10.076752 -40.112143 -30.778753 -0.112700 -2.164600 5.960800 4.581504 9.108340 2.877947 0.156462 12.063702 -1.542368 -3.052815 6.129152 -1.573522 12.548256 21.019057 4.141395 -2.086948 27.441806 3.485317 -3.247600 13.759700 5.524900 3.858974 -2.061743 0.417818 -84.806517 3.278436 -8.099617 9.722105 -15.841757 -1.285935 0.443233 0.389293 7.044994 16.824387 5.674892 1.538700 -7.125000 0.000000 0.000000 -8.525900 35.320700 2.045900 -2.748243 0.877351 0.377307 80.152312 -1.934523 8.355200 -32.121633 42.158852 -12.127331 0.217789 -0.603208 -19.340951 -16.979429 0.003980 -0.206300 7.125000 0.000000 0.000000 7.483300 -29.236500 2.897400 
-0.103512 17.824495 -26.581475 0.046776 47.362725 3.547210 -5.977987 -1.945734 -0.477925 -4.252025 -19.756375 -11.209788 -0.132598 7.888415 21.538848 2.175033 -6.221317 9.111908 0.263300 -3.300800 -9.117400 4.284318 1.507760 0.807322 15.516466 -21.053517 -8.662015 -1.199468 -8.661083 22.665326 10.088892 -40.103949 -30.671322 -0.111700 -2.154400 5.932700 4.534075 9.176801 2.951234 0.145436 12.158215 -1.529772 -3.050805 6.175369 -1.603978 12.547199 21.026933 4.118018 -2.170861 27.462552 3.507241 -3.263600 13.767500 5.550300 3.860198 -2.067147 0.417388 -84.922659 3.525955 -8.734750 9.617994 -15.677376 -1.258750 0.440501 0.382047 7.370166 16.632926 5.539492 1.482500 -7.125000 0.000000 0.000000 -8.662900 35.178000 2.109900 -2.744908 0.881792 0.377334 80.163225 -1.958130 8.679066 -32.660225 42.587911 -12.474672 0.219461 -0.604914 -19.344579 -17.017941 0.139277 -0.249000 7.125000 0.000000 0.000000 7.442700 -29.093800 2.906900 
-0.103512 17.824495 -26.577195 -0.021967 47.210842 3.469538 -5.968736 -1.940643 -0.467680 -4.212071 -19.688297 -11.165901 -0.129516 7.895258 21.547422 2.155110 -6.112658 9.064163 0.263100 -3.299700 -9.114200 4.285879 1.507627 0.805796 15.539473 -20.956955 -8.566995 -1.190586 -8.645997 22.613257 10.095423 -40.107088 -30.630971 -0.111100 -2.149300 5.918500 4.513954 9.244333 3.002921 0.134674 12.251239 -1.522730 -3.059691 6.220899 -1.624046 12.563245 21.040998 4.107514 -2.253911 27.486990 3.491221 -3.283700 13.776000 5.563200 3.861013 -2.073168 0.417820 -85.038039 3.762614 -9.323077 9.535507 -15.546247 -1.237238 0.437975 0.374749 7.663165 16.463090 5.387864 1.424600 -7.125000 0.000000 0.000000 -8.780200 35.020300 2.173100 -2.742737 0.883190 0.376667 80.143963 -1.901728 9.025057 -33.057058 42.899448 -12.731950 0.220540 -0.606065 -19.393148 -17.037041 0.264891 -0.288300 7.125000 0.000000 0.000000 7.418700 -28.961900 2.920800 
-0.103611 17.824694 -26.572219 -0.100042 47.079392 3.396624 -5.958881 -1.937090 -0.458604 -4.157735 -19.620691 -11.136823 -0.126466 7.900854 21.554657 2.141054 -6.032557 9.018790 0.262500 -3.296300 -9.104700 4.287939 1.508195 0.804612 15.581917 -20.857176 -8.474086 -1.179190 -8.626087 22.547384 10.103886 -40.122039 -30.614067 -0.110800 -2.146500 5.910600 4.502699 9.311975 3.034609 0.110414 12.342948 -1.521026 -3.086644 6.265957 -1.634265 12.592658 21.054173 4.096587 -2.318966 27.502685 3.440992 -3.303000 13.779400 5.562800 3.861421 -2.079801 0.418851 -85.139802 3.973284 -9.874065 9.472824 -15.445646 -1.220613 0.435120 0.367835 7.905479 16.298515 5.230227 1.366500 -7.125000 0.000000 0.000000 -8.892100 34.856900 2.237000 -2.741999 0.883168 0.376009 80.166637 -1.835777 9.335482 -33.374929 43.147315 -12.939389 0.221108 -0.607480 -19.386979 -17.083591 0.382629 -0.325900 7.125000 0.000000 0.000000 7.374000 -28.838100 2.924800 
